<?xml version="1.0" standalone="no"?>
<!DOCTYPE svg PUBLIC "-//W3C//DTD SVG 20010904//EN"
 "http://www.w3.org/TR/2001/REC-SVG-20010904/DTD/svg10.dtd">
<svg version="1.0" xmlns="http://www.w3.org/2000/svg"
 width="800.000000pt" height="800.000000pt" viewBox="0 0 800.000000 800.000000"
 preserveAspectRatio="xMidYMid meet">
<metadata>
Created by potrace 1.11, written by Peter Selinger 2001-2013
</metadata>
<g transform="translate(0.000000,800.000000) scale(0.100000,-0.100000)"
fill="#000000" stroke="none">
<path d="M3688 7619 c-741 -65 -1485 -374 -2033 -844 -618 -529 -1023 -1202
-1199 -1994 -117 -524 -117 -1038 0 -1562 135 -608 402 -1142 796 -1594 297
-340 676 -645 1022 -822 l92 -46 12 -71 c19 -116 32 -148 76 -192 94 -95 252
-91 351 8 l49 50 126 -36 c524 -148 1029 -185 1540 -110 583 85 1176 328 1639
671 l114 85 106 -31 c320 -93 540 -110 741 -57 106 28 225 67 262 87 38 20
109 93 127 129 57 112 46 234 -28 313 -33 37 -63 52 -131 67 -50 11 -65 10
-165 -15 -152 -36 -234 -45 -332 -33 -88 11 -99 21 -62 54 12 10 65 78 119
149 400 533 650 1193 710 1875 21 239 10 571 -26 820 -97 665 -395 1330 -819
1825 -98 114 -285 303 -392 397 -51 44 -93 84 -93 89 0 33 77 209 106 241 76
85 78 248 2 334 -38 43 -66 58 -138 74 -52 11 -64 10 -245 -35 -104 -26 -235
-63 -290 -82 -55 -19 -121 -41 -146 -50 l-46 -16 -164 66 c-339 136 -708 225
-1069 257 -130 11 -482 11 -612 -1z m602 -600 c145 -13 314 -42 453 -76 l108
-26 -63 -55 c-123 -107 -476 -469 -578 -592 -452 -546 -973 -1420 -1342 -2250
-33 -74 -102 -225 -153 -335 -133 -285 -170 -377 -196 -488 l-23 -98 47 -192
c62 -254 69 -305 69 -482 0 -167 -5 -205 -64 -486 l-41 -196 -91 27 c-50 16
-165 50 -256 78 -91 27 -201 58 -245 67 -44 10 -96 22 -115 26 -28 7 -51 27
-105 91 -397 478 -622 983 -707 1588 -18 128 -18 632 0 760 50 357 134 634
287 945 304 621 811 1122 1436 1419 334 159 642 241 1039 279 86 9 436 6 540
-4z m2008 -1044 c345 -409 584 -893 675 -1371 46 -236 52 -306 52 -604 0 -298
-6 -368 -52 -604 -101 -525 -391 -1080 -776 -1482 l-78 -82 -112 34 c-62 19
-179 48 -262 66 -127 27 -170 32 -280 32 -112 -1 -146 -5 -245 -32 -161 -43
-208 -61 -346 -130 -76 -38 -132 -73 -151 -95 l-30 -34 -304 93 c-308 96 -529
157 -606 169 -53 8 -54 18 -5 33 58 17 216 97 285 143 74 51 210 181 276 264
109 138 194 308 235 466 15 59 33 101 57 135 95 130 216 356 261 484 33 95 88
300 88 329 0 12 28 68 61 124 53 87 193 363 307 603 18 38 39 99 46 136 10 45
24 81 44 105 71 90 206 330 275 488 92 212 185 446 197 496 7 30 27 79 45 109
50 83 114 218 131 279 l16 53 60 -58 c33 -33 94 -99 136 -149z m-2191 -4745
c197 -60 401 -119 453 -131 52 -12 115 -27 140 -34 l45 -11 -140 -27 c-248
-47 -305 -52 -610 -52 -225 1 -317 5 -410 18 -147 22 -357 66 -368 77 -5 4 9
11 30 15 132 24 412 153 464 214 19 22 35 40 36 40 2 1 164 -48 360 -109z"/>
</g>
</svg>
